<svg xmlns="http://www.w3.org/2000/svg" width="38" height="25" stroke="#000" stroke-linecap="round" stroke-linejoin="round" fill="#fff" fill-rule="evenodd">
    <path d="M37.7953 23.7285c-1.3749.3885-2.2252.0172-2.9882-1.2557l-5.4259-8.3399-.7844-1.1548-6.3365 9.5224c-.724 1.1454-1.4838 1.6441-2.8348 1.2386l8.1141-12.1006L19.9855.7081c1.299-.2807 2.1969-.1377 2.9939 1.1548l5.628 8.4436 5.6692-8.3977C35.0032.7633 35.7839.3276 37.0877.7501l-2.9292 4.3143-3.9683 5.7409c-.4727.656-.4077 1.1047.0272 1.7385l7.5779 11.1847zM.0095 11.4363l.6639-3.6268C2.4805.632 9.8857-2.3504 14.9929 2.0846c2.9846 2.6086 3.7265 6.2985 3.5786 10.4317H1.7481c-.2527 7.4398 4.5674 11.9301 10.7124 9.639 2.1557-.8044 3.4252-2.6794 4.0609-5.0254.3221-1.1758.8561-1.3595 1.8507-1.0235-.5078 2.9338-1.6536 5.385-4.0747 6.9189-3.6179 2.2963-8.7818 1.5536-11.4981-1.6376C1.1812 19.5362.5125 17.1902.2125 14.6814.1655 14.2667.0708 13.8718 0 13.4742q.0095-1.0182.0095-2.0366zm1.7691-.4985h15.2032c-.0993-5.3798-3.1144-9.2009-7.2353-9.2337-4.5238-.0394-7.7718 3.691-7.9679 9.2337z" stroke="none" fill-rule="nonzero"/>
</svg>