<svg xmlns="http://www.w3.org/2000/svg" width="17" height="43" stroke="none" stroke-linecap="round" stroke-linejoin="round" fill="#fff" fill-rule="nonzero">
    <path d="M8.118.1161l.9786 2.1308c.2197.3936.4581.7425.7389 1.0665.819.9495 1.5963 1.944 2.2951 3.0105 1.6573 2.5244 2.7758 5.328 3.5741 8.3598.4788 1.8512.7388 3.7516.7581 5.6727.0801 5.7444-1.6172 10.6764-5.0398 14.7749-.5593.6486-1.157 1.2481-1.7984 1.7836-.3394 0-.4999-.3018-.6394-.5805-.2598-.5085-.4192-1.089-.4994-1.6669-.1203-.6956-.1994-1.3893-.1604-2.1078v-.3242C8.2981 32.1673 7.9989.2801 8.118.1161z"/>
    <path d="M8.1184.0459c-.04-.0935-.0801-.0226-.1202.0225.0193.4645-.1202.879-.3395 1.2749-.2406.3938-.5589.6955-.8785 1.0197-1.7756 1.7829-3.173 3.9364-4.292 6.3454C.999 11.9499.2315 15.4243.0138 19.0821c-.0994 1.3193.3598 5.9753.7183 7.3183.9785 3.5663 2.7354 6.5544 5.0113 9.1474.5594.6247 1.1571 1.2045 1.7757 1.7607.1797 0 .1992-.1861.2405-.3242a7.158 7.158 0 0 0 .1798-.9032l.4008-3.4731L8.1184.0459z"/>
    <path d="M9.0965 38.3248c.0401-.5316.2602-.9727.499-1.412-.2408-.115-.4188-.3449-.5588-.6013-.1203-.232-.2201-.5091-.2977-.7644-.28-.972-.339-1.9935-.4194-2.9874v-.6014c-.0991.0923-.12.8798-.12.9968-.0585 1.0498-.1786 2.0946-.3598 3.1264-.0598.4165-.0999.8332-.3208 1.2027 0 .0471 0 .0944.0197.1621.3592 1.2283.4581 2.4792.5186 3.7527v.4646c0 .5563-.0197.4394.3779.6244.1604.0694.3392.094.4998.2316.12 0 .1394-.115.1394-.209l-.0595-.7639v-2.1302c-.0189-.3729.0401-.7419.0804-1.0897z"/>
</svg>